<svg width="171" height="89" viewBox="0 0 171 89" fill="none" xmlns="http://www.w3.org/2000/svg">
<path d="M83.22 37.0815C83.2903 37.0732 83.3613 37.0732 83.4317 37.0815C83.524 37.1091 83.5565 37.1533 83.5565 37.2197C83.5593 37.2658 83.5531 37.3121 83.5382 37.3557C83.5233 37.3994 83.5 37.4396 83.4697 37.474C80.2125 42.2722 76.9554 47.1092 73.5245 51.913L78.7848 51.8798C81.1408 51.8798 81.8574 51.4818 82.3242 50.8571C82.5443 50.5223 82.6974 50.1466 82.7748 49.7516C82.8094 49.6225 82.8813 49.5069 82.9811 49.4199H83.2037C83.2037 49.4199 82.8454 51.7748 82.7097 52.2944C82.574 52.814 82.5414 52.8472 82.0257 52.8472H71.2771C71.0057 52.8472 70.9297 52.7035 70.9297 52.5542C70.9297 52.405 70.9731 52.3497 71.2445 52.0014C73.7145 48.5243 76.4994 45.0528 79.0454 41.5702C79.8162 40.4646 80.5962 39.359 81.3851 38.2534L81.5805 37.9604L76 37.9825C75.4553 37.9815 74.9111 38.0185 74.3714 38.0931C74.0273 38.1427 73.6913 38.2394 73.3725 38.3806C72.5691 38.7841 72.1077 40.0389 72.1077 40.0389L71.8634 40.4148C71.8227 40.3825 71.7895 40.3415 71.766 40.2947C71.7426 40.2479 71.7295 40.1965 71.7277 40.144C71.7277 39.8952 72.048 37.9936 72.1511 37.38C72.1581 37.3013 72.1816 37.2251 72.22 37.1564C72.2584 37.0878 72.3108 37.0283 72.3737 36.982C72.6189 37.0624 72.8765 37.0962 73.1337 37.0815C74.518 37.0815 75.848 37.0815 77.1345 37.0815H83.2091H83.22Z" fill="black"/>
<path d="M58.6611 45.6553L60.8325 39.3148L63.0039 45.6553H58.6611ZM68.4325 52.4271C67.9982 52.2999 67.4011 51.9682 66.6682 50.2159L61.1419 36.595C61.0659 36.4458 60.9791 36.6835 60.9791 36.6835L55.8057 50.4646C55.4257 51.5702 54.9968 52.3828 54.0142 52.5155C53.8405 52.5155 53.2 52.5597 53.2 52.5597V52.6869C53.2502 52.7459 53.3129 52.7925 53.3835 52.8232C53.454 52.8538 53.5305 52.8677 53.6071 52.8638H57.6894C57.7521 52.8593 57.8131 52.8412 57.8684 52.8107C57.9236 52.7802 57.9718 52.738 58.0097 52.6869V52.5929L57.5808 52.5542C57.2225 52.5542 56.772 52.3607 56.772 51.924C56.7911 51.4258 56.892 50.9344 57.0705 50.4702L58.4494 46.4348H63.2862L65.3437 51.924C65.4739 52.2723 65.3437 52.4768 65.2188 52.5155C65.0939 52.5542 65.0668 52.5763 65.0668 52.6648C65.0668 52.7532 65.2948 52.8638 65.7019 52.8638H69.0677C69.2256 52.8535 69.3761 52.7915 69.4965 52.6869L69.4694 52.5819C69.1183 52.5601 68.7696 52.5084 68.4271 52.4271" fill="black"/>
<path d="M89.8972 45.6553L92.0686 39.3148L94.24 45.6553H89.8972ZM99.6686 52.4271C99.2289 52.2999 98.6372 51.9682 97.9043 50.2159L92.3726 36.595C92.2966 36.4458 92.2152 36.6835 92.2152 36.6835L87.0418 50.4646C86.6563 51.5702 86.2329 52.3828 85.2449 52.5155C85.0766 52.5155 84.436 52.5597 84.436 52.5597V52.6869C84.4862 52.7459 84.549 52.7925 84.6196 52.8232C84.6901 52.8538 84.7666 52.8677 84.8432 52.8638H88.9255C88.988 52.8586 89.0488 52.8402 89.104 52.8098C89.1591 52.7793 89.2074 52.7375 89.2458 52.6869V52.5929L88.8169 52.5542C88.4532 52.5542 88.0026 52.3607 88.0026 51.924C88.024 51.4256 88.1267 50.9343 88.3066 50.4702L89.68 46.4348H94.5223L96.5798 51.924C96.71 52.2723 96.5798 52.4768 96.4495 52.5155C96.3192 52.5542 96.3029 52.5763 96.3029 52.6648C96.3029 52.7532 96.5309 52.8638 96.9381 52.8638H100.304C100.462 52.8535 100.612 52.7915 100.733 52.6869L100.705 52.5819C100.354 52.5601 100.006 52.5084 99.6632 52.4271" fill="black"/>
<path d="M38.2172 52.8583C38.1465 52.8535 38.0784 52.8301 38.0194 52.7904C37.9603 52.7506 37.9125 52.6959 37.8806 52.6316V52.5321C37.8806 52.5321 38.4614 52.4603 38.646 52.416C39.064 52.3331 39.3517 51.8632 39.4386 51.233C39.5417 50.343 39.5417 48.6736 39.5417 46.6448V42.9245C39.5417 39.6078 39.5417 36.7774 39.4983 36.0975C39.4549 35.4176 39.292 35.0417 38.608 34.8924C38.374 34.8597 38.1384 34.8394 37.9023 34.8316L37.734 34.7045L37.7774 34.5165L40.5351 34.5994L43.0812 34.5165V34.7045L42.9183 34.8316C42.9183 34.8316 42.484 34.8316 42.2343 34.8924C41.6317 34.9974 41.4634 35.3568 41.42 36.0975C41.3766 36.8383 41.382 39.6299 41.382 42.9245V46.6891C41.382 49.7958 41.4906 50.9622 41.838 51.3657C42.1854 51.7693 44.5523 51.9185 46.9029 51.9185H47.6792C50.0352 51.9185 50.5834 51.5205 51.0557 50.8958C51.3012 50.5535 51.4766 50.1643 51.5714 49.7516C51.6061 49.6225 51.6779 49.5069 51.7777 49.4199H52.0003C52.0003 49.4199 51.642 51.7693 51.5063 52.2889C51.3706 52.8085 51.3489 52.8417 50.8331 52.8417L38.2172 52.8583Z" fill="black"/>
<path d="M109.787 45.1247C109.315 45.4563 108.061 45.5227 107.567 45.5227C106.829 45.5557 106.091 45.4411 105.396 45.1855C105.351 45.1622 105.314 45.1263 105.289 45.0822C105.264 45.0381 105.252 44.9876 105.255 44.9367V38.0931C105.252 38.0394 105.267 37.9865 105.296 37.9418C105.326 37.8971 105.368 37.863 105.417 37.8443C105.869 37.7508 106.33 37.7082 106.791 37.7172C107.342 37.6947 107.892 37.7866 108.408 37.9873C108.923 38.188 109.393 38.4933 109.789 38.8847C110.186 39.2761 110.499 39.7453 110.712 40.264C110.924 40.7827 111.031 41.3399 111.025 41.9019C111.025 43.4939 110.482 44.6216 109.771 45.1247H109.787ZM117.051 52.5155C116.065 52.3294 115.176 51.7926 114.543 51.0009C113.354 49.7073 111.959 47.8444 110.276 45.6498C112.122 43.914 112.757 42.333 112.757 40.8129C112.747 40.261 112.615 39.7185 112.369 39.2263C112.124 38.7342 111.772 38.3051 111.34 37.9715C110.254 37.1755 108.197 37.0483 106.905 37.0483C106.27 37.0483 104.733 37.1091 104.484 37.1091L101.845 37.0373V37.2031C101.845 37.2031 101.927 37.3303 102.008 37.3303C102.243 37.3296 102.478 37.3518 102.709 37.3966C103.382 37.5403 103.545 37.8775 103.588 38.5851C103.631 39.2927 103.631 39.8399 103.631 43.107V46.7886C103.631 48.7952 103.631 50.4481 103.528 51.327C103.447 51.9351 103.344 52.3939 102.931 52.4768C102.747 52.5211 102.177 52.5653 102.177 52.5653V52.6869C102.214 52.739 102.263 52.7813 102.32 52.8102C102.376 52.839 102.439 52.8536 102.502 52.8527H106.943C107.006 52.8536 107.069 52.839 107.126 52.8102C107.182 52.7813 107.231 52.739 107.269 52.6869L107.22 52.5653C107.22 52.5653 106.471 52.5211 106.183 52.4768C105.569 52.3939 105.445 51.924 105.385 51.327C105.282 50.4481 105.282 48.7952 105.282 46.7886V46.2855C105.282 46.1805 105.32 46.1197 105.423 46.1197L108.631 46.1584C108.682 46.1573 108.733 46.1682 108.779 46.1903C108.825 46.2123 108.865 46.2449 108.897 46.2855C109.304 46.8383 110.271 48.2314 111.134 49.3812C112.301 50.9511 113.017 51.9738 113.902 52.4547C114.578 52.7843 115.328 52.9219 116.074 52.8527H117.529C117.618 52.8633 117.708 52.8539 117.794 52.8252C117.879 52.7966 117.957 52.7494 118.023 52.6869L117.919 52.5542C117.625 52.5563 117.332 52.5378 117.04 52.4989" fill="black"/>
<path d="M126.079 52.1286C125.244 52.1682 124.407 52.1423 123.576 52.0512L123.088 51.8909C123.047 51.8455 123.017 51.7921 122.998 51.734C122.979 51.6759 122.973 51.6145 122.979 51.5537C122.979 50.8461 122.979 48.7178 122.979 47.1313V42.7863C122.979 41.1832 122.979 39.055 122.979 38.364C122.972 38.3031 122.978 38.2415 122.997 38.1833C123.016 38.1251 123.047 38.0717 123.088 38.0268L123.576 37.8609C123.853 37.8222 124.515 37.7835 124.521 37.7835C125.02 37.7575 125.522 37.7723 126.019 37.8278C126.462 37.875 126.9 37.9638 127.327 38.0931C127.756 38.2223 128.167 38.4082 128.549 38.6459C130.644 39.8842 132.012 41.7913 132.034 45.0528C132.034 47.9163 131.214 50.0556 129.254 51.233C128.292 51.8136 127.197 52.1298 126.079 52.1507V52.1286ZM125.596 52.8748C128.093 52.8748 129.938 52.322 131.757 50.4149C131.978 50.1725 132.176 49.9097 132.349 49.6299C132.619 49.1791 132.862 48.712 133.076 48.2314C134.987 43.3004 132.452 39.9063 131.871 39.3369C129.868 37.3745 127.691 37.1257 125.585 37.0925L119.429 37.0373V37.2252C119.429 37.2252 119.494 37.3468 119.575 37.3468H119.863H119.89C120.086 37.349 120.282 37.3656 120.476 37.3966L120.656 37.4463H120.71L120.884 37.5237C120.934 37.5491 120.98 37.5827 121.019 37.6232C121.049 37.6519 121.076 37.6834 121.101 37.7172L121.133 37.7559V37.8057C121.244 38.0442 121.301 38.3047 121.302 38.5685C121.34 39.2319 121.34 39.8178 121.34 43.0683V46.7278C121.34 49.9837 121.34 50.5642 121.302 51.233C121.301 51.4968 121.243 51.7572 121.133 51.9959C121.134 52.0106 121.134 52.0254 121.133 52.0401L121.101 52.0843C121.076 52.1182 121.049 52.1496 121.019 52.1783C120.978 52.2171 120.933 52.2505 120.884 52.2778C120.827 52.3088 120.769 52.3365 120.71 52.3607H120.656L120.476 52.416C120.282 52.4441 120.086 52.4608 119.89 52.4658H119.863H119.624C119.543 52.4658 119.505 52.5929 119.505 52.5929V52.7809L125.596 52.8748Z" fill="black"/>
</svg>
